<svg viewBox="0 0 24 23" fill="none" xmlns="http://www.w3.org/2000/svg">
<g id="vuesax/linear/profile-2user">
<g id="profile-2user">
<path id="Vector" d="M9.05779 10.3833C8.96312 10.3738 8.84952 10.3738 8.74539 10.3833C6.49232 10.3075 4.70312 8.46153 4.70312 6.18953C4.70312 3.87019 6.57752 1.98633 8.90632 1.98633C11.2257 1.98633 13.1095 3.87019 13.1095 6.18953C13.1001 8.46153 11.3109 10.3075 9.05779 10.3833Z" stroke="#475467" stroke-width="1.42" stroke-linecap="round" stroke-linejoin="round"/>
<path id="Vector_2" d="M15.9219 3.87988C17.7584 3.87988 19.2352 5.36615 19.2352 7.19322C19.2352 8.98242 17.8152 10.4403 16.045 10.5065C15.9692 10.4971 15.884 10.4971 15.7988 10.5065" stroke="#475467" stroke-width="1.42" stroke-linecap="round" stroke-linejoin="round"/>
<path id="Vector_3" d="M4.32465 13.8764C2.03371 15.41 2.03371 17.9092 4.32465 19.4334C6.92798 21.1752 11.1974 21.1752 13.8008 19.4334C16.0917 17.8998 16.0917 15.4006 13.8008 13.8764C11.2069 12.144 6.93745 12.144 4.32465 13.8764Z" stroke="#475467" stroke-width="1.42" stroke-linecap="round" stroke-linejoin="round"/>
<path id="Vector_4" d="M17.748 19.0257C18.4296 18.8837 19.0734 18.6092 19.6035 18.2021C21.0803 17.0945 21.0803 15.2674 19.6035 14.1598C19.0828 13.7622 18.4486 13.4972 17.7764 13.3457" stroke="#475467" stroke-width="1.42" stroke-linecap="round" stroke-linejoin="round"/>
</g>
</g>
</svg>
